<?xml version="1.0" encoding="UTF-8" standalone="no"?>
<!-- Created with Inkscape (http://www.inkscape.org/) -->

<svg
   width="1421.2429mm"
   height="411.14603mm"
   viewBox="0 0 1421.2429 411.14603"
   version="1.1"
   id="svg1"
   xml:space="preserve"
   sodipodi:docname="logo-margin-vector.svg"
   inkscape:version="1.3.2 (091e20e, 2023-11-25)"
   xmlns:inkscape="http://www.inkscape.org/namespaces/inkscape"
   xmlns:sodipodi="http://sodipodi.sourceforge.net/DTD/sodipodi-0.dtd"
   xmlns="http://www.w3.org/2000/svg"
   xmlns:svg="http://www.w3.org/2000/svg"><sodipodi:namedview
     id="namedview1"
     pagecolor="#ffffff"
     bordercolor="#000000"
     borderopacity="0.25"
     inkscape:showpageshadow="2"
     inkscape:pageopacity="0.0"
     inkscape:pagecheckerboard="0"
     inkscape:deskcolor="#d1d1d1"
     inkscape:document-units="mm"
     inkscape:zoom="0.12178867"
     inkscape:cx="3801.6673"
     inkscape:cy="229.90644"
     inkscape:window-width="1720"
     inkscape:window-height="1403"
     inkscape:window-x="26"
     inkscape:window-y="23"
     inkscape:window-maximized="0"
     inkscape:current-layer="svg1" /><defs
     id="defs1" /><g
     id="g1"
     transform="translate(154.84178,-10.000977)"><rect
       width="279.92917"
       height="279.92917"
       rx="52.486721"
       fill="#111827"
       id="rect1"
       x="-89.233368"
       y="75.60939"
       style="stroke-width:4.37389" /><path
       fill="#ffffff"
       fill-rule="evenodd"
       d="m -23.62496,136.84393 h 69.98229 c 43.738942,0 78.73008,34.99104 78.73008,78.73009 0,43.73887 -34.991138,78.73008 -78.73008,78.73008 h -69.98229 z m 43.738929,43.73888 v 69.98224 H 46.35733 c 19.245137,0 34.991154,-15.74601 34.991154,-34.99103 0,-19.24519 -15.746017,-34.99121 -34.991154,-34.99121 z m 0,13.12168 34.991154,21.86953 -34.991154,21.86935 z"
       id="path1"
       style="stroke-width:4.37389" /></g><path
     style="font-weight:bold;font-size:229.803px;line-height:1;font-family:Ubuntu;-inkscape-font-specification:'Ubuntu Bold';text-align:center;text-anchor:middle;fill:#111827;stroke-width:107.72;stroke-linejoin:round"
     d="m 457.10662,286.7704 q -9.65173,0 -22.06109,-0.91921 -12.40936,-0.68941 -23.89951,-3.21724 V 127.97653 q 11.49015,-2.29803 24.35912,-3.21724 12.86896,-0.91921 22.52069,-0.91921 26.88695,0 47.10961,8.50271 20.22267,8.50271 31.48301,26.42734 11.26035,17.92464 11.26035,46.42021 0,27.34655 -11.26035,45.50099 -11.03054,18.15444 -31.48301,27.11675 -20.45246,8.96232 -48.02882,8.96232 z m 1.83842,-26.88695 q 28.49557,0 42.28375,-14.47759 14.01799,-14.70739 14.01799,-40.21552 0,-26.42735 -13.55838,-40.44533 -13.32857,-14.01798 -41.82415,-14.01798 -5.74507,0 -10.11133,0.2298 -4.13645,0.2298 -7.12389,0.68941 v 107.5478 q 2.29803,0.2298 5.97488,0.45961 3.90665,0.2298 10.34113,0.2298 z m 174.42006,28.03597 q -21.60148,0 -35.38966,-8.04311 -13.78818,-8.27291 -20.68227,-22.52069 -6.66429,-14.24779 -6.66429,-31.94262 0,-21.37168 8.27291,-35.38966 8.27291,-14.24779 21.14188,-21.37168 12.86897,-7.35369 27.34655,-7.35369 16.54582,0 28.49558,6.89409 12.17955,6.89409 18.61404,20.45246 6.66428,13.55838 6.66428,34.01085 0,2.52783 -0.2298,5.74507 -0.2298,3.21724 -0.4596,5.74507 h -78.82243 q 0.91921,13.09878 9.88153,20.45247 9.19212,7.3537 25.50813,7.3537 10.11133,0 18.61404,-1.83843 8.73252,-1.83842 13.78818,-4.13645 l 4.36626,24.58892 q -5.05567,2.52783 -16.54582,4.82586 -11.26034,2.52784 -23.89951,2.52784 z m -31.71281,-74.91578 h 50.32685 q -0.2298,-7.12389 -2.98743,-13.09877 -2.52784,-6.20468 -7.81331,-9.88153 -5.05566,-3.67685 -13.55837,-3.67685 -8.27291,0 -13.78818,3.90665 -5.28547,3.67685 -8.27291,9.88153 -2.98744,5.97488 -3.90665,12.86897 z m 107.5474,114.44189 V 168.65166 q 5.74507,-1.83842 13.55837,-3.21724 7.8133,-1.60862 16.77562,-2.52783 8.96232,-1.14902 17.69483,-1.14902 19.30345,0 33.09163,7.8133 14.01798,7.5835 21.37168,21.83129 7.3537,14.01798 7.3537,33.32143 0,18.61404 -6.20468,32.63203 -5.97488,14.01798 -17.92464,22.06108 -11.71995,7.81331 -28.95518,7.81331 -8.0431,0 -14.93719,-1.83843 -6.66429,-1.60862 -11.94976,-4.36625 v 46.4202 z m 51.47587,-65.72366 q 7.35369,0 12.40936,-2.29803 5.28547,-2.52783 8.73251,-7.12389 3.44705,-4.82586 5.05567,-11.49015 1.60862,-6.66429 1.60862,-15.3968 0,-11.49015 -3.67685,-19.99286 -3.67685,-8.50271 -10.80074,-13.09877 -6.89409,-4.82586 -17.00542,-4.82586 -5.97488,0 -10.57094,0.68941 -4.59606,0.4596 -7.3537,0.91921 V 255.747 q 3.44705,2.29803 9.19212,4.13645 5.97488,1.83842 12.40937,1.83842 z m 142.70746,26.19755 q -21.60149,0 -35.38967,-8.04311 -13.78817,-8.27291 -20.68226,-22.52069 -6.66429,-14.24779 -6.66429,-31.94262 0,-21.37168 8.27291,-35.38966 8.2729,-14.24779 21.14187,-21.37168 12.86897,-7.35369 27.34656,-7.35369 16.54581,0 28.49557,6.89409 12.17956,6.89409 18.61404,20.45246 6.66429,13.55838 6.66429,34.01085 0,2.52783 -0.2298,5.74507 -0.22981,3.21724 -0.45961,5.74507 H 871.6702 q 0.91921,13.09878 9.88153,20.45247 9.19212,7.3537 25.50813,7.3537 10.11134,0 18.61405,-1.83843 8.73251,-1.83842 13.78818,-4.13645 l 4.36625,24.58892 q -5.05566,2.52783 -16.54581,4.82586 -11.26035,2.52784 -23.89951,2.52784 z M 871.6702,213.00364 h 50.32686 q -0.2298,-7.12389 -2.98744,-13.09877 -2.52783,-6.20468 -7.8133,-9.88153 -5.05567,-3.67685 -13.55838,-3.67685 -8.27291,0 -13.78818,3.90665 -5.28547,3.67685 -8.27291,9.88153 -2.98744,5.97488 -3.90665,12.86897 z m 107.54743,71.92834 V 168.65166 q 8.27291,-2.29803 21.37167,-4.59606 13.3286,-2.29803 28.7254,-2.29803 20.2226,0 31.2532,7.12389 11.2603,6.89409 15.6266,19.30346 4.5961,12.40936 4.5961,28.95517 v 67.79189 h -29.8744 v -63.65543 q 0,-12.17956 -2.2981,-19.53326 -2.0682,-7.5835 -7.1239,-10.80074 -5.0556,-3.44704 -14.2477,-3.44704 -5.2855,0 -10.3412,0.68941 -4.8258,0.4596 -7.8133,0.91921 v 95.82785 z m 190.27667,2.98744 q -19.3035,0 -33.3215,-7.5835 -13.7881,-7.5835 -21.3716,-21.60148 -7.3537,-14.24779 -7.3537,-33.55124 0,-19.30345 6.4344,-33.55124 6.4345,-14.24778 18.3843,-21.83128 12.1795,-7.81331 29.185,-7.81331 8.0431,0 14.2477,1.83843 6.4345,1.83842 11.9498,4.36626 v -56.76134 l 29.8744,-4.82587 v 174.42048 q -5.5153,1.83842 -13.5584,3.44704 -8.0431,1.37882 -17.0054,2.29803 -8.7325,1.14902 -17.465,1.14902 z m 0.2298,-25.73794 q 5.9748,0 10.5709,-0.45961 4.5961,-0.68941 7.3537,-1.14901 v -66.87267 q -3.447,-2.52784 -9.4219,-4.36626 -5.7451,-1.83842 -12.4094,-1.83842 -7.1239,0 -12.4093,2.52783 -5.0557,2.29803 -8.5028,7.12389 -3.447,4.59606 -5.0556,11.49015 -1.6086,6.66429 -1.6086,15.3968 0,11.71996 3.6768,20.22267 3.6769,8.50271 10.8007,13.32857 7.1239,4.59606 17.0055,4.59606 z m 138.1114,25.73794 q -21.6015,0 -35.3897,-8.04311 -13.7882,-8.27291 -20.6823,-22.52069 -6.6642,-14.24779 -6.6642,-31.94262 0,-21.37168 8.2729,-35.38966 8.2729,-14.24779 21.1418,-21.37168 12.869,-7.35369 27.3466,-7.35369 16.5458,0 28.4956,6.89409 12.1795,6.89409 18.614,20.45246 6.6643,13.55838 6.6643,34.01085 0,2.52783 -0.2298,5.74507 -0.2298,3.21724 -0.4596,5.74507 h -78.8224 q 0.9192,13.09878 9.8815,20.45247 9.1921,7.3537 25.5081,7.3537 10.1113,0 18.6141,-1.83843 8.7325,-1.83842 13.7881,-4.13645 l 4.3663,24.58892 q -5.0557,2.52783 -16.5458,4.82586 -11.2604,2.52784 -23.8995,2.52784 z m -31.7128,-74.91578 h 50.3268 q -0.2298,-7.12389 -2.9874,-13.09877 -2.5279,-6.20468 -7.8133,-9.88153 -5.0557,-3.67685 -13.5584,-3.67685 -8.2729,0 -13.7882,3.90665 -5.2855,3.67685 -8.2729,9.88153 -2.9874,5.97488 -3.9066,12.86897 z"
     id="text1"
     aria-label="Depende" /></svg>
